<svg class="hidden md:block" xmlns="http://www.w3.org/2000/svg" width="100" height="27" viewBox="0 0 100 27"
     fill="none">
    <g opacity="0.8">
        <path
            d="M24.3639 6.77881C25.6478 6.77881 26.8153 6.90936 27.8642 7.1685C28.9131 7.42764 29.8085 7.83097 30.5506 8.37653C31.2906 8.92209 31.8656 9.61574 32.2735 10.4575C32.6814 11.2992 32.8853 12.2909 32.8853 13.4308V21.8286C32.8853 22.4735 32.7183 22.9859 32.3861 23.3698C32.0521 23.7537 31.6519 24.0809 31.1818 24.3537C30.4165 24.8253 29.4783 25.1838 28.3672 25.4312C27.2561 25.6786 25.9956 25.8033 24.5892 25.8033C22.0446 25.8033 20.0207 25.3143 18.5153 24.3362C17.0079 23.3581 16.2563 21.8656 16.2563 19.8587C16.2563 18.1498 16.7613 16.8483 17.7751 15.9579C18.7872 15.0655 20.3431 14.5083 22.4428 14.2861L27.3689 13.7659V13.3567C27.3689 12.5637 27.0483 11.9811 26.4054 11.6109C25.7625 11.2388 24.8358 11.0537 23.6278 11.0537C22.6896 11.0537 21.7688 11.1647 20.8675 11.3888C19.9663 11.6109 19.1582 11.872 18.4414 12.1682C18.1443 11.9695 17.8917 11.6675 17.682 11.2583C17.4722 10.8491 17.3672 10.4107 17.3672 9.93919C17.3672 8.85001 17.9345 8.06868 19.0708 7.5991C19.7875 7.32632 20.6208 7.12174 21.5707 6.98535C22.5167 6.84701 23.449 6.77881 24.3639 6.77881ZM24.5853 21.6026C25.1292 21.6026 25.6653 21.546 26.1975 21.435C26.7278 21.3239 27.1299 21.1817 27.4018 21.0083V17.5908L24.3639 17.8499C23.5733 17.9239 22.9382 18.1051 22.4564 18.3896C21.9747 18.6741 21.7339 19.1026 21.7339 19.6716C21.7339 20.266 21.9553 20.7374 22.4001 21.0843C22.8449 21.4311 23.5733 21.6026 24.5853 21.6026Z"
            fill="white"></path>
        <path
            d="M50.6624 19.9675C50.6624 21.8009 49.9825 23.2311 48.6247 24.2599C47.267 25.2867 45.2663 25.8011 42.6246 25.8011C41.5874 25.8011 40.6433 25.7271 39.7906 25.579C38.9379 25.4309 38.2036 25.2069 37.586 24.9107C36.9682 24.6125 36.4865 24.2424 36.1407 23.7961C35.795 23.3499 35.6221 22.8297 35.6221 22.2355C35.6221 21.6899 35.7329 21.2261 35.9563 20.8423C36.1776 20.4585 36.4613 20.1428 36.8089 19.8953C37.5257 20.3162 38.3396 20.6883 39.2545 21.0099C40.1674 21.3314 41.2299 21.4931 42.44 21.4931C44.194 21.4931 45.0701 20.9982 45.0701 20.0064C45.0701 19.5856 44.9167 19.2641 44.6078 19.0401C44.2989 18.8179 43.7745 18.6192 43.0325 18.4457L41.5504 18.1107C39.5245 17.6898 38.019 17.039 37.0304 16.1602C36.0417 15.2815 35.5483 14.0481 35.5483 12.464C35.5483 10.7046 36.2574 9.31146 37.6792 8.28462C39.099 7.2578 41.0065 6.74341 43.4015 6.74341C44.2911 6.74341 45.1303 6.8116 45.9208 6.948C46.7114 7.08439 47.3893 7.28898 47.9585 7.56175C48.5257 7.83454 48.9763 8.17551 49.3104 8.58274C49.6445 8.9919 49.8096 9.46928 49.8096 10.0129C49.8096 10.5097 49.7106 10.9481 49.5124 11.332C49.3143 11.7158 49.056 12.0315 48.7354 12.2789C48.5374 12.1562 48.2479 12.0198 47.8653 11.8698C47.4826 11.7217 47.0689 11.5853 46.624 11.4606C46.1792 11.3378 45.7092 11.2385 45.2158 11.1625C44.7224 11.0884 44.266 11.0514 43.8464 11.0514C42.982 11.0514 42.3099 11.1683 41.8282 11.4041C41.3465 11.6398 41.1056 11.9925 41.1056 12.464C41.1056 12.8109 41.2415 13.0836 41.5135 13.2804C41.7854 13.4792 42.2789 13.6643 42.9956 13.8377L44.4039 14.1728C46.6513 14.6677 48.2557 15.3867 49.2192 16.3278C50.1806 17.2689 50.6624 18.4828 50.6624 19.9675Z"
            fill="white"></path>
        <path
            d="M57.7367 25.3745C57.2918 25.4368 56.7985 25.468 56.2546 25.468C55.1435 25.468 54.3412 25.2887 53.8479 24.9283C53.3526 24.5698 53.106 23.8703 53.106 22.8298V1.01897C53.3779 0.944932 53.7353 0.870891 54.1801 0.796852C54.6248 0.722811 55.1183 0.685791 55.6622 0.685791C56.7732 0.685791 57.5696 0.870891 58.0514 1.24304C58.533 1.61519 58.7739 2.32053 58.7739 3.36099V7.63393C59.2925 7.38647 59.8792 7.18188 60.5337 7.02016C61.1883 6.85844 61.8973 6.77855 62.6626 6.77855C65.0343 6.77855 66.8914 7.38062 68.2373 8.58086C69.5835 9.78305 70.2555 11.5854 70.2555 13.9878V25.1718C70.0089 25.2459 69.6632 25.314 69.2183 25.3764C68.7735 25.4387 68.2801 25.4699 67.7362 25.4699C66.6253 25.4699 65.823 25.2906 65.3276 24.9302C64.8343 24.5717 64.5876 23.8722 64.5876 22.8318V14.3209C64.5876 13.2065 64.3098 12.4134 63.7543 11.9419C63.1987 11.4723 62.4878 11.2366 61.6235 11.2366C61.0543 11.2366 60.5357 11.3165 60.0676 11.4782C59.5975 11.6399 59.1662 11.8309 58.7719 12.0549V25.1718C58.5272 25.2439 58.1815 25.3121 57.7367 25.3745Z"
            fill="white"></path>
        <path
            d="M91.6671 16.2516C91.6671 17.713 91.4455 19.0321 91.0008 20.2089C90.556 21.3857 89.9208 22.3834 89.0933 23.1998C88.2658 24.0182 87.2714 24.6494 86.1117 25.0957C84.9501 25.5418 83.6546 25.764 82.2229 25.764C80.7914 25.764 79.488 25.5457 78.3149 25.1131C77.1415 24.6806 76.1412 24.0551 75.3137 23.2367C74.4862 22.4203 73.8511 21.4228 73.4062 20.246C72.9615 19.069 72.74 17.7382 72.74 16.2516C72.74 14.8156 72.9674 13.5082 73.4257 12.3314C73.8822 11.1545 74.5232 10.1569 75.3526 9.34052C76.1801 8.52217 77.1804 7.89088 78.3536 7.44469C79.5269 6.9985 80.8167 6.77637 82.2249 6.77637C83.6332 6.77637 84.9171 6.9985 86.0768 7.44469C87.2364 7.89088 88.2308 8.52802 89.0583 9.35806C89.8858 10.1881 90.5268 11.1857 90.9853 12.3489C91.4378 13.516 91.6671 14.8156 91.6671 16.2516ZM82.221 11.2364C81.0594 11.2364 80.1582 11.6708 79.5172 12.536C78.8742 13.403 78.5537 14.6422 78.5537 16.2516C78.5537 17.9117 78.8683 19.1685 79.4978 20.0238C80.1271 20.8792 81.0342 21.3059 82.221 21.3059C83.406 21.3059 84.315 20.8733 84.9443 20.0062C85.5736 19.1392 85.8883 17.8883 85.8883 16.2535C85.8883 14.6695 85.5678 13.4361 84.9249 12.5574C84.2839 11.6767 83.3826 11.2364 82.221 11.2364Z"
            fill="white"></path>
        <path
            d="M97.4457 25.468C96.3345 25.468 95.5382 25.2887 95.0565 24.9283C94.5748 24.5698 94.3339 23.8703 94.3339 22.8298V1.01897C94.5807 0.944932 94.9322 0.870891 95.3907 0.796852C95.847 0.722811 96.3462 0.685791 96.8901 0.685791C97.9759 0.685791 98.7665 0.870891 99.26 1.24304C99.7533 1.61519 100 2.32053 100 3.36099V25.1718C99.728 25.2459 99.3707 25.314 98.9258 25.3764C98.4829 25.4368 97.9876 25.468 97.4457 25.468Z"
            fill="white"></path>
        <path
            d="M15.1024 0H12.0042H11.9401H11.5302C6.79267 0 4.42485 2.02248 4.42485 6.08498V8.3666H0.876035C0.39237 8.3666 0 8.75824 0 9.24341V12.9045C0 13.3897 0.39237 13.7833 0.876035 13.7833H4.42485V19.2564C4.42485 19.2564 4.4365 23.8177 0.378774 25.8111C0.378774 25.8111 9.53925 28.4082 9.53925 19.2564V13.7833H12.921C14.1253 13.7833 15.1024 12.8032 15.1024 11.5952V9.24341C15.1024 8.75824 14.71 8.36465 14.2264 8.36465H9.53925V7.43719C9.53925 6.10252 10.1997 5.4342 12.0081 5.4342H13.6455C14.4497 5.4342 15.1024 4.77953 15.1024 3.97287V2.74146V0Z"
            fill="white"></path>
    </g>
</svg>
